<?xml version="1.0" encoding="UTF-8"?>
<svg width="265px" height="69px" viewBox="0 0 265 69" version="1.1" xmlns="http://www.w3.org/2000/svg" xmlns:xlink="http://www.w3.org/1999/xlink">
    <!-- Generator: Sketch 52.5 (67469) - http://www.bohemiancoding.com/sketch -->
    <title>Logo/White</title>
    <desc>Created with Sketch.</desc>
    <defs>
        <polygon id="path-1" points="0.9782 0.042 24.1307 0.042 24.1307 41.3003684 0.9782 41.3003684"></polygon>
        <polygon id="path-3" points="0.271833333 0.042 4.73083333 0.042 4.73083333 41.3010316 0.271833333 41.3010316"></polygon>
        <polygon id="path-5" points="0.98352 0.88792 8.33592 0.88792 8.33592 11 0.98352 11"></polygon>
    </defs>
    <g id="Logo/White" stroke="none" stroke-width="1" fill="none" fill-rule="evenodd">
        <g id="ICU-Medical-Logo">
            <path d="M12,40.7770523 C12,40.7770523 10.8455575,41 9.47028424,41 C4.73881932,41 1,38.5743292 1,33.2258142 L1,13 L9.74577619,13 L9.74577619,32.0129787 C9.74577619,33.0630623 10.2399125,33.6694801 12,33.6694801 L12,40.7770523 Z" id="Fill-1" fill="#FFFFFF"></path>
            <path d="M29.864749,34.4201011 C32.2964435,34.4201011 34.1745816,33.926919 36,33.1560441 L36,40.6270875 C34.1745816,41.5045963 32.0196653,42 28.9816946,42 C18.7562762,42 15,36.837138 15,27.5 C15,18.162862 18.7562762,13 28.9816946,13 C32.0196653,13 34.1745816,13.4954037 36,14.3751341 L36,21.8439559 C34.1745816,21.0753026 32.2964435,20.5798989 29.864749,20.5798989 C26.2183054,20.5798989 23.7316946,22.2815995 23.7316946,27.5 C23.7316946,32.7184005 26.2183054,34.4201011 29.864749,34.4201011" id="Fill-3" fill="#FFFFFF"></path>
            <path d="M60.6324158,41.2375856 L59.5144469,39.2764618 C56.3828005,41.1296136 52.8599761,42 49.7861173,42 C42.1803727,42 40,38.0777524 40,32.8488235 L40,14 L48.9459737,14 L48.9459737,31.5399386 C48.9459737,33.5561502 49.6727646,34.9179193 52.0776201,34.9179193 C54.2579928,34.9179193 56.2161053,34.0475329 57.0540263,33.5032659 L57.0540263,14 L66,14 L66,41.2375856 L60.6324158,41.2375856 Z" id="Fill-5" fill="#FFFFFF"></path>
            <path d="M88.6167158,21.0420505 C88.6167158,16.2740889 86.6833657,15.4981177 82.5445482,15.4981177 C78.8994921,15.4981177 76.2507367,16.2180216 73.7665684,17.769964 L73.7665684,42 L72,42 L72,14.2780937 L72.8273246,14.2780937 L73.5997868,16.4400481 C76.0290927,14.8881057 79.617092,14 82.5445482,14 C86.4090539,14 88.506991,14.944173 89.5559596,16.9401682 C92.9223149,14.8320384 96.4005894,14 99.161264,14 C105.123707,14 107,16.2180216 107,21.2080096 L107,42 L105.233432,42 L105.233432,21.0420505 C105.233432,16.2740889 103.302276,15.4981177 99.161264,15.4981177 C95.7927143,15.4981177 92.9223149,16.3839808 90.0519155,18.2140168 C90.2735595,19.1021225 90.3832842,20.1001201 90.3832842,21.2080096 L90.3832842,42 L88.6167158,42 L88.6167158,21.0420505 Z" id="Fill-7" fill="#FFFFFF"></path>
            <path d="M132.591034,39.144262 L132.591034,40.6276469 C130.399309,41.4492823 126.684558,42 123.645217,42 C114.308021,42 112,36.1797129 112,28.0011103 C112,19.8202871 114.308021,14 123.645217,14 C132.986886,14 134,19.9290983 134,28.0011103 L134,28.7694504 L113.742198,28.7694504 C113.858493,34.9716869 115.600691,40.5166151 123.645217,40.5166151 C127.809495,40.5166151 130.508895,39.8037909 132.591034,39.144262 Z M132.309241,27.2305496 C132.309241,21.2481561 131.694216,15.4833849 123.645217,15.4833849 C115.600691,15.4833849 113.858493,21.0283131 113.742198,27.2305496 L132.309241,27.2305496 Z" id="Fill-9" fill="#FFFFFF"></path>
            <g id="Group-13" transform="translate(135.000000, 0.000000)">
                <mask id="mask-2" fill="white">
                    <use xlink:href="#path-1"></use>
                </mask>
                <g id="Clip-12"></g>
                <path d="M22.43195,15.7245789 L22.43195,0.0408947368 L24.1307,0.0408947368 L24.1307,41.0262632 L23.39495,41.0262632 L22.59845,38.8953158 C20.10995,40.4802632 15.92045,41.3003684 12.6962,41.3003684 C3.3002,41.3003684 0.9782,35.2346842 0.9782,27.3652105 C0.9782,19.4957368 3.3002,13.4300526 12.6962,13.4300526 C15.86645,13.4300526 19.9412,14.1948947 22.43195,15.7245789 M22.43195,37.5292105 L22.43195,17.199 C19.8827,15.6693158 16.65845,14.9044737 12.6962,14.9044737 C4.2632,14.9044737 2.7332,21.189 2.7332,27.3652105 C2.7332,33.5392105 4.2632,39.8237368 12.6962,39.8237368 C16.65845,39.8237368 19.8827,39.0611053 22.43195,37.5292105" id="Fill-11" fill="#FFFFFF" mask="url(#mask-2)"></path>
            </g>
            <path d="M169,42 C166.211297,42 165,40.6678414 165,37.9496996 L165,14 L166.579498,14 L166.579498,37.8420505 C166.579498,39.9479375 167.104603,40.6678414 169,40.6678414 L169,42 Z" id="Fill-14" fill="#FFFFFF"></path>
            <path d="M184.366383,14 C186.782858,14 189.803998,14.3842005 192,15.0970812 L192,16.5805838 C189.967716,16.0320431 187.880859,15.4835025 184.366383,15.4835025 C176.184858,15.4835025 174.700483,21.5218909 174.700483,28 C174.700483,34.4781091 176.184858,40.5187183 184.366383,40.5187183 C187.880859,40.5187183 189.967716,39.9701777 192,39.4194162 L192,40.9029188 C189.803998,41.6157995 186.782858,42 184.366383,42 C175.250574,42 173,36.1814721 173,28 C173,19.8207487 175.250574,14 184.366383,14" id="Fill-16" fill="#FFFFFF"></path>
            <path d="M197.540286,16.6361041 L197.540286,15.1526015 C199.120111,14.6040609 202.338106,14 205.670549,14 C214.305728,14 216,17.4045051 216,22.785533 L216,41.7268401 L215.153986,41.7268401 L214.364074,39.5859772 C211.989848,41.231599 207.64533,42 204.822291,42 C197.540286,42 195,37.9936548 195,33.6008883 C195,29.4279822 197.028639,25.7503173 204.878393,25.2550761 L214.193524,24.7065355 L214.193524,22.7300127 C214.193524,17.5688452 212.501496,15.4835025 205.670549,15.4835025 C201.660398,15.4835025 198.612951,16.2519036 197.540286,16.6361041 Z M204.200684,26.794099 C198.500748,27.1782995 196.74813,29.9765228 196.74813,33.6008883 C196.74813,36.8410533 198.047446,40.5187183 204.936739,40.5187183 C208.491344,40.5187183 211.707096,39.4749365 214.193524,37.9936548 L214.193524,26.1345178 L204.200684,26.794099 Z" id="Fill-18" fill="#FFFFFF"></path>
            <g id="Group-22" transform="translate(221.000000, 0.000000)">
                <mask id="mask-4" fill="white">
                    <use xlink:href="#path-3"></use>
                </mask>
                <g id="Clip-21"></g>
                <path d="M4.73083333,41.3010316 C1.6205,41.3010316 0.271833333,39.9879789 0.271833333,37.3088211 L0.271833333,0.0393473684 L2.0335,0.0393473684 L2.0335,37.2027158 C2.0335,39.2784 2.61916667,39.9879789 4.73083333,39.9879789 L4.73083333,41.3010316 Z" id="Fill-20" fill="#FFFFFF" mask="url(#mask-4)"></path>
            </g>
            <path d="M10,6 C10,8.76080314 7.76109801,11 4.99892773,11 C2.23890199,11 0,8.76080314 0,6 C0,3.23919686 2.23890199,1 4.99892773,1 C7.76109801,1 10,3.23919686 10,6" id="Fill-23" fill="#FFFFFF"></path>
            <path d="M112.249692,56.1647242 C112.249692,54.957265 112.038745,54.3067599 112,54.2110334 L113.039668,54 C113.078413,54.0957265 113.291513,54.7853924 113.291513,56.203885 L113.291513,58.7319347 C113.291513,59.2301476 113.252768,59.7457653 113.252768,59.8610723 C114.100861,58.9995338 115.220172,58.2902875 116.453567,58.2902875 C118.016298,58.2902875 119,59.2671329 119,61.0097902 L119,68 L117.95818,68 L117.95818,61.1838384 C117.95818,60.4941725 117.803198,59.9959596 117.495387,59.6891997 C117.245695,59.4216006 116.800123,59.2301476 116.223247,59.2301476 C115.239545,59.2301476 114.158979,59.8045066 113.291513,60.8770785 L113.291513,68 L112.249692,68 L112.249692,56.1647242 Z" id="Fill-25" fill="#FFFFFF"></path>
            <g id="Group-29" transform="translate(121.000000, 58.000000)">
                <mask id="mask-6" fill="white">
                    <use xlink:href="#path-5"></use>
                </mask>
                <g id="Clip-28"></g>
                <path d="M6.83772,9.41072 C6.06992,10.39852 4.98532,10.94192 3.68512,10.94192 C2.54112,10.94192 1.75132,10.49532 1.37732,9.81992 C1.12212,9.45252 0.98352,8.90692 0.98352,8.28872 L0.98352,1.10352 L2.02852,0.88792 L2.02852,7.97852 C2.02852,8.81232 2.20672,9.29412 2.64012,9.62632 C2.95472,9.87492 3.44752,10.05092 3.97992,10.05092 C5.00512,10.05092 6.06992,9.41072 6.73872,8.30632 L6.73872,1.10352 L7.80352,0.92972 L7.80352,8.28872 C7.80352,9.45252 7.96192,9.89692 8.33592,10.30172 L7.62532,11.00132 C7.15232,10.57232 6.93672,10.16972 6.83772,9.41072" id="Fill-27" fill="#FFFFFF" mask="url(#mask-6)"></path>
            </g>
            <path d="M131.312967,61.2579206 C131.312967,59.9616243 131.039394,59.4127622 131,59.2922802 L132.039577,59.060241 C132.08116,59.1383311 132.354733,59.7652834 132.354733,60.5528782 C132.982856,59.745203 134.155937,59 135.215211,59 C136.37516,59 137.215575,59.7072735 137.508846,60.7291388 C138.331753,59.7072735 139.528908,59 140.588182,59 C142.078607,59 143,60.0620259 143,61.6305221 L143,69 L141.901331,69 L141.901331,61.7286925 C141.901331,60.6510486 141.430786,59.9616243 140.332117,59.9616243 C139.410724,59.9616243 138.550611,60.5707274 137.627029,61.6305221 L137.627029,69 L136.567755,69 L136.567755,61.8491745 C136.567755,61.2177599 136.45176,60.7871486 136.195696,60.4725569 C135.922123,60.1601963 135.550064,60.0017849 134.959146,60.0017849 C134.136239,60.0017849 133.256429,60.4725569 132.332847,61.476573 L132.332847,69 L131.312967,69 L131.312967,61.2579206 Z" id="Fill-30" fill="#FFFFFF"></path>
            <path d="M151.179846,67.6256232 C150.300599,68.5209191 149.398516,68.9241275 148.231516,68.9241275 C145.714816,68.9241275 145,67.5497507 145,66.2707566 C145,64.1138088 146.984585,63.003902 150.218384,63.003902 C150.627177,63.003902 151.015415,63.0255799 151.118184,63.04509 L151.118184,62.1649686 C151.118184,61.2523304 151.035969,60.7537394 150.709392,60.4112291 C150.359977,60.0687188 149.912361,59.8584435 149.215815,59.8584435 C148.005424,59.8584435 146.678561,60.4112291 145.920354,61.0203772 L145.367685,60.2746586 C146.573508,59.4920876 147.927776,59 149.357408,59 C150.586069,59 151.421924,59.4183828 151.833,60.179276 C152.202969,60.8707999 152.223523,61.5753306 152.202969,62.3969217 L152.120754,65.8111858 C152.079646,67.3177975 152.202969,67.8900932 153,68.2564492 L152.426777,69 C151.773623,68.7875569 151.341993,68.3106438 151.179846,67.6256232 M151.035969,66.6891394 C151.015415,66.5764145 151.035969,65.9455886 151.035969,65.7916757 C151.035969,65.412313 151.077077,64.0921309 151.077077,63.7712985 C150.832715,63.7517884 150.462746,63.7301106 150.156723,63.7301106 C147.475592,63.7301106 146.228661,64.5126816 146.228661,66.1732062 C146.228661,67.3177975 146.820154,68.1393887 148.4165,68.1393887 C149.501285,68.1393887 150.4833,67.5866031 151.035969,66.6891394" id="Fill-32" fill="#FFFFFF"></path>
            <path d="M155.330846,61.2491039 C155.330846,60.1671147 155.13495,59.6317204 155,59.2956989 L156.031716,59.0224014 C156.070896,59.0985663 156.345149,59.7101254 156.345149,60.5793011 C157.298507,59.5533154 158.354167,59 159.464241,59 C160.458955,59 161.257774,59.4749104 161.632152,60.1671147 C161.862873,60.5412186 162,61.0138889 162,61.5246416 L162,69 L160.946517,69 L160.946517,62.077957 C160.946517,61.1505376 160.791978,60.7764337 160.498134,60.4000896 C160.245647,60.124552 159.777674,59.9274194 159.231343,59.9274194 C158.354167,59.9274194 157.143968,60.5412186 156.364739,61.4484767 L156.364739,69 L155.330846,69 L155.330846,61.2491039 Z" id="Fill-34" fill="#FFFFFF"></path>
            <path d="M171.925676,67.5142232 C171.31982,66.6477024 171,65.5689278 171,64.1247265 C171,62.0437637 171.603604,60.9256018 172.432432,60.0962801 C173.195946,59.3654267 174.045045,59 175.074324,59 C176.304054,59 177.06982,59.4442013 177.736486,60.0196937 L177.135135,60.7527352 C176.448198,60.1750547 175.903153,59.9234136 175.056306,59.9234136 C174.245495,59.9234136 173.461712,60.2888403 172.997748,60.9671772 C172.490991,61.6761488 172.189189,62.7549234 172.189189,64.3369803 C172.189189,66.5536105 173.096847,68.1509847 175.094595,68.1509847 C175.961712,68.1509847 176.768018,67.7833698 177.396396,67.0919037 L178,67.7658643 C177.135135,68.6345733 176.243243,69 175.056306,69 C173.662162,69 172.612613,68.4770241 171.925676,67.5142232" id="Fill-36" fill="#FFFFFF"></path>
            <path d="M180.892983,67.4060183 C180.307776,66.5425207 180,65.408635 180,63.9716529 C180,62.4910597 180.368464,61.245966 181.010024,60.3977322 C181.612571,59.6127344 182.620428,59 183.979409,59 C185.572474,59 186.582498,59.7871784 187.146031,60.631051 C187.709564,61.4749237 188,62.5870039 188,64.1046664 C188,65.408635 187.729071,66.4291321 187.260905,67.21413 C186.660526,68.2695159 185.53346,69 184.016256,69 C182.525061,69 181.49553,68.3087658 180.892983,67.4060183 M186.348415,66.6755342 C186.699539,65.8905364 186.812246,65.2930659 186.812246,64.1809856 C186.812246,62.8181422 186.621512,61.8587004 186.253048,61.1696468 C185.865077,60.3977322 184.991601,59.8613171 183.96207,59.8613171 C182.893525,59.8613171 182.078569,60.4195377 181.727445,61.0540776 C181.358981,61.7060619 181.146573,62.6284344 181.146573,63.8168338 C181.146573,65.1796773 181.395828,66.333188 181.805473,66.9851723 C182.173937,67.5782817 182.991059,68.1343218 184.03793,68.1343218 C185.20401,68.1343218 185.979951,67.504143 186.348415,66.6755342" id="Fill-38" fill="#FFFFFF"></path>
            <path d="M190.330949,61.2491039 C190.330949,60.1671147 190.134992,59.6317204 190,59.2979391 L191.02986,59.0224014 C191.071229,59.0985663 191.345568,59.7101254 191.345568,60.5793011 C192.299222,59.5533154 193.35521,59 194.463453,59 C195.458476,59 196.261897,59.4749104 196.632037,60.1671147 C196.865008,60.5412186 197,61.0138889 197,61.5246416 L197,69 L195.948367,69 L195.948367,62.077957 C195.948367,61.1505376 195.793779,60.7764337 195.499844,60.4000896 C195.247278,60.124552 194.77916,59.9274194 194.232659,59.9274194 C193.35521,59.9274194 192.144635,60.5412186 191.365163,61.4484767 L191.365163,69 L190.330949,69 L190.330949,61.2491039 Z" id="Fill-40" fill="#FFFFFF"></path>
            <path d="M200.330949,61.2491039 C200.330949,60.1671147 200.132815,59.6317204 200,59.2979391 L201.02986,59.0224014 C201.071229,59.0985663 201.345568,59.7101254 201.345568,60.5793011 C202.297045,59.5533154 203.35521,59 204.463453,59 C205.458476,59 206.25972,59.4749104 206.632037,60.1671147 C206.865008,60.5412186 207,61.0138889 207,61.5246416 L207,69 L205.94619,69 L205.94619,62.077957 C205.94619,61.1505376 205.793779,60.7764337 205.497667,60.4000896 C205.247278,60.124552 204.77916,59.9274194 204.232659,59.9274194 C203.35521,59.9274194 202.142457,60.5412186 201.365163,61.4484767 L201.365163,69 L200.330949,69 L200.330949,61.2491039 Z" id="Fill-42" fill="#FFFFFF"></path>
            <path d="M209,63.9343257 C209,62.2968476 209.397428,61.1978984 210.232028,60.2915937 C210.947399,59.5188266 211.908241,59 213.189363,59 C214.297487,59 215.178843,59.4049912 215.805377,59.9807356 C216.602572,60.7535026 217,61.6598074 217,63.8161121 L217,64.030648 L210.297487,64.030648 L210.297487,64.5297723 C210.316189,65.5521016 210.592051,66.3795972 210.98948,66.9203152 C211.555231,67.6930823 212.495032,68.1133975 213.670953,68.1133975 C214.713618,68.1133975 215.594974,67.8463222 216.310345,67.2486865 L216.768556,67.9207531 C215.889538,68.6169002 214.781414,69 213.437171,69 C210.571011,69 209,66.9597198 209,63.9343257 Z M215.781999,63.2403678 C215.781999,62.0823117 215.576271,61.3489492 215.241964,60.8498249 C214.842198,60.25 214.089421,59.8296848 213.126242,59.8296848 C211.555231,59.8296848 210.402688,60.9658494 210.297487,63.2403678 L215.781999,63.2403678 Z" id="Fill-44" fill="#FFFFFF"></path>
            <path d="M219.980223,67.5142232 C219.379585,66.6477024 219,65.5689278 219,64.1247265 C219,62.0437637 219.658692,60.9256018 220.480383,60.0962801 C221.239553,59.3654267 222.079107,59 223.099522,59 C224.31866,59 225.080064,59.4442013 225.738756,60.0196937 L225.140351,60.7527352 C224.461563,60.1750547 223.921212,59.9234136 223.081659,59.9234136 C222.280064,59.9234136 221.500797,60.2888403 221.040829,60.9671772 C220.54067,61.6761488 220.239234,62.7549234 220.239234,64.3369803 C220.239234,66.5536105 221.141308,68.1509847 223.119617,68.1509847 C223.981499,68.1509847 224.778628,67.7833698 225.401595,67.0919037 L226,67.7658643 C225.140351,68.6345733 224.260606,69 223.081659,69 C221.699522,69 220.661244,68.4770241 219.980223,67.5142232" id="Fill-46" fill="#FFFFFF"></path>
            <path d="M229.123007,68.63933 C228.571754,68.3194905 228.32574,67.7229105 228.32574,66.8019543 L228.32574,59.6135055 L227,59.6135055 L227,58.7946257 L228.32574,58.7946257 C228.32574,57.7761298 228.448747,56.4582097 228.489749,56.2381783 L229.67426,56 C229.612756,56.1996161 229.451025,57.4767056 229.451025,58.7946257 L231.958998,58.7946257 L231.612756,59.6135055 L229.410023,59.6135055 L229.410023,66.5229454 C229.410023,67.6231024 229.756264,68.1607049 230.779043,68.1607049 C231.248292,68.1607049 231.551253,68.0813122 231.835991,67.9406735 L232,68.6620136 C231.551253,68.8797767 231.063781,69 230.410023,69 C229.838269,69 229.451025,68.8389461 229.123007,68.63933" id="Fill-48" fill="#FFFFFF"></path>
            <path d="M234,55.88026 C234,55.4003249 234.456853,55 235.002538,55 C235.545685,55 236,55.3798538 236,55.88026 C236,56.360195 235.545685,56.7627945 235.002538,56.7627945 C234.456853,56.7627945 234,56.360195 234,55.88026 Z M234.340102,59.0237206 L235.616751,58.8463038 L235.616751,69 L234.340102,69 L234.340102,59.0237206 Z" id="Fill-50" fill="#FFFFFF"></path>
            <path d="M238.892983,67.4060183 C238.309943,66.5425207 238,65.408635 238,63.9716529 C238,62.4910597 238.368464,61.245966 239.012192,60.3977322 C239.612571,59.6127344 240.620428,59 241.979409,59 C243.572474,59 244.582498,59.7871784 245.146031,60.631051 C245.711731,61.4749237 246,62.5870039 246,64.1046664 C246,65.408635 245.729071,66.4291321 245.263072,67.21413 C244.660526,68.2695159 243.535627,69 242.018423,69 C240.525061,69 239.49553,68.3087658 238.892983,67.4060183 M244.350582,66.6755342 C244.701707,65.8905364 244.814413,65.2930659 244.814413,64.1809856 C244.814413,62.8181422 244.623679,61.8587004 244.255215,61.1696468 C243.865077,60.3977322 242.993769,59.8613171 241.96207,59.8613171 C240.893525,59.8613171 240.078569,60.4195377 239.73178,61.0540776 C239.358981,61.7060619 239.146573,62.6284344 239.146573,63.8168338 C239.146573,65.1796773 239.397995,66.333188 239.805473,66.9851723 C240.173937,67.5782817 240.991059,68.1343218 242.03793,68.1343218 C243.20401,68.1343218 243.982119,67.504143 244.350582,66.6755342" id="Fill-52" fill="#FFFFFF"></path>
            <path d="M248.328771,61.2491039 C248.328771,60.1671147 248.134992,59.6317204 248,59.2979391 L249.02986,59.0224014 C249.069051,59.0985663 249.34339,59.7101254 249.34339,60.5793011 C250.299222,59.5533154 251.35521,59 252.463453,59 C253.458476,59 254.261897,59.4749104 254.632037,60.1671147 C254.86283,60.5412186 255,61.0138889 255,61.5246416 L255,69 L253.948367,69 L253.948367,62.077957 C253.948367,61.1505376 253.791602,60.7764337 253.497667,60.4000896 C253.245101,60.124552 252.776983,59.9274194 252.230482,59.9274194 C251.35521,59.9274194 250.142457,60.5412186 249.365163,61.4484767 L249.365163,69 L248.328771,69 L248.328771,61.2491039 Z" id="Fill-54" fill="#FFFFFF"></path>
            <path d="M258,68.083225 L258.420851,67.3181621 C259.322993,67.8729952 260.386313,68.1785869 261.530221,68.1785869 C262.974097,68.1785869 263.856092,67.3961855 263.856092,66.2518422 C263.856092,65.354573 263.3748,64.7260511 262.03166,64.4573039 L260.787016,64.2297356 C259.242405,63.9241439 258.360409,63.0658864 258.360409,61.7264846 C258.360409,60.1443433 259.645347,59 261.689159,59 C262.752478,59 263.775504,59.2839185 264.538855,59.745557 L264.100096,60.5084525 C263.356892,60.1074989 262.553246,59.8192458 261.648865,59.8192458 C260.26543,59.8192458 259.48417,60.5843086 259.48417,61.6137841 C259.48417,62.5283919 260.025903,63.0268747 261.149664,63.254443 L262.432363,63.5036844 C264.256796,63.8656264 265,64.7628955 265,66.058951 C265,67.7971391 263.616565,69 261.469779,69 C260.207227,69 258.92229,68.6553966 258,68.083225" id="Fill-56" fill="#FFFFFF"></path>
        </g>
    </g>
</svg>